<svg xmlns="http://www.w3.org/2000/svg" viewBox="0 0 512 512">
  <rect width="512" height="512" rx="112" fill="#f7f3ed"/>
  <circle cx="256" cy="250" r="150" fill="#dfe7e1"/>
  <path d="M256 363c-15-68-2-130 50-187" fill="none" stroke="#718b7e" stroke-width="28" stroke-linecap="round"/>
  <path d="M277 251c12-55 52-91 108-96-4 55-41 95-98 105z" fill="#91a79d"/>
  <path d="M238 302c-10-51-48-83-99-85 7 52 43 86 96 93z" fill="#a9b9af"/>
  <circle cx="256" cy="366" r="18" fill="#718b7e"/>
  <path d="M140 112l8 20 20 8-20 8-8 20-8-20-20-8 20-8z" fill="#ead3cb"/>
  <path d="M390 324l7 17 17 7-17 7-7 17-7-17-17-7 17-7z" fill="#f0cdbc"/>
</svg>
